<svg width="28" height="29" viewBox="0 0 28 29" fill="none" xmlns="http://www.w3.org/2000/svg">
<path fill-rule="evenodd" clip-rule="evenodd" d="M27.3996 2.65804C26.3678 0.692436 22.9742 1.30984 20.0412 2.09524C7.29141 6.79364 2.78061 16.3417 1.19581 22.0299C1.11741 22.1727 1.06981 22.3365 1.06561 22.5115C0.438411 24.9251 0.353011 26.5337 0.351611 26.5869C0.327811 27.1651 0.777211 27.6537 1.35541 27.6775C1.37081 27.6789 1.38621 27.6789 1.40161 27.6789C1.96021 27.6789 2.42501 27.2379 2.45021 26.6737C2.45721 26.5029 2.52161 25.3283 2.91781 23.5727C6.42901 23.4243 9.96401 22.1167 13.436 19.6751C13.7076 19.4847 13.8728 19.1767 13.8826 18.8463C13.8924 18.5145 13.744 18.1981 13.485 17.9937L11.8834 16.7253L17.139 16.2101C17.3532 16.1891 17.5548 16.1037 17.7186 15.9637C17.832 15.8685 20.5074 13.5781 23.0526 10.9082C26.9236 6.84824 28.2634 4.30444 27.3996 2.65804Z" fill="#335CFF"/>
<path fill-rule="evenodd" clip-rule="evenodd" d="M21.1784 25.5798H12.2044C11.6248 25.5798 11.1544 26.0502 11.1544 26.6298C11.1544 27.2094 11.6248 27.6798 12.2044 27.6798H21.1784C21.758 27.6798 22.2284 27.2094 22.2284 26.6298C22.2284 26.0502 21.758 25.5798 21.1784 25.5798Z" fill="#335CFF"/>
</svg>
